<?xml version="1.0" standalone="no" ?>
<!DOCTYPE svg PUBLIC "-//W3C//DTD SVG 1.1//EN" "http://www.w3.org/Graphics/SVG/1.1/DTD/svg11.dtd">
<svg width="600px" height="300px" xmlns="http://www.w3.org/2000/svg" version="1.1" >
	<polygon points="50,250 550,250 550,50 50,50 " fill="transparent" stroke-width="1" stroke="rgb(0,0,0)" />
	<polyline points="85.7143,192.651 121.429,154.713 157.143,142.749 192.857,148.495 228.571,170.782 235.714,152.276 242.857,154.753 250,156.273 257.143,158.196 264.286,147.505 271.429,139.785 278.571,136.953 285.714,136.582 292.857,144.945 300,134.771 307.143,130.127 314.286,133.884 321.429,139.705 328.571,136.462 335.714,135.822 342.857,136.236 350,126.436 357.143,116.462 364.286,102.2 371.429,96.9491 378.571,83.1127 385.714,83.7309 392.857,76.4545 400,73.48 407.143,76.8109 414.286,77.12 421.429,69.6764 428.571,71.6291 435.714,103.833 442.857,106.273 450,102.644 457.143,94.08 464.286,85.16 471.429,82.3891 478.571,82.3964 485.714,88.9055 492.857,108.382 500,113.313 507.143,107.247 " fill="transparent" stroke-width="0.5" stroke="rgb(0,0,255)" />
	<circle cx="85.7143" cy="192.651" r="2.04958" fill="rgb(0,0,0)" />
	<circle cx="121.429" cy="154.713" r="2.04958" fill="rgb(0,0,0)" />
	<circle cx="157.143" cy="142.749" r="2.04958" fill="rgb(0,0,0)" />
	<circle cx="192.857" cy="148.495" r="2.04958" fill="rgb(0,0,0)" />
	<circle cx="228.571" cy="170.782" r="2.04958" fill="rgb(0,0,0)" />
	<circle cx="235.714" cy="152.276" r="2.04958" fill="rgb(0,0,0)" />
	<circle cx="242.857" cy="154.753" r="2.04958" fill="rgb(0,0,0)" />
	<circle cx="250" cy="156.273" r="2.04958" fill="rgb(0,0,0)" />
	<circle cx="257.143" cy="158.196" r="2.04958" fill="rgb(0,0,0)" />
	<circle cx="264.286" cy="147.505" r="2.04958" fill="rgb(0,0,0)" />
	<circle cx="271.429" cy="139.785" r="2.04958" fill="rgb(0,0,0)" />
	<circle cx="278.571" cy="136.953" r="2.04958" fill="rgb(0,0,0)" />
	<circle cx="285.714" cy="136.582" r="2.04958" fill="rgb(0,0,0)" />
	<circle cx="292.857" cy="144.945" r="2.04958" fill="rgb(0,0,0)" />
	<circle cx="300" cy="134.771" r="2.04958" fill="rgb(0,0,0)" />
	<circle cx="307.143" cy="130.127" r="2.04958" fill="rgb(0,0,0)" />
	<circle cx="314.286" cy="133.884" r="2.04958" fill="rgb(0,0,0)" />
	<circle cx="321.429" cy="139.705" r="2.04958" fill="rgb(0,0,0)" />
	<circle cx="328.571" cy="136.462" r="2.04958" fill="rgb(0,0,0)" />
	<circle cx="335.714" cy="135.822" r="2.04958" fill="rgb(0,0,0)" />
	<circle cx="342.857" cy="136.236" r="2.04958" fill="rgb(0,0,0)" />
	<circle cx="350" cy="126.436" r="2.04958" fill="rgb(0,0,0)" />
	<circle cx="357.143" cy="116.462" r="2.04958" fill="rgb(0,0,0)" />
	<circle cx="364.286" cy="102.2" r="2.04958" fill="rgb(0,0,0)" />
	<circle cx="371.429" cy="96.9491" r="2.04958" fill="rgb(0,0,0)" />
	<circle cx="378.571" cy="83.1127" r="2.04958" fill="rgb(0,0,0)" />
	<circle cx="385.714" cy="83.7309" r="2.04958" fill="rgb(0,0,0)" />
	<circle cx="392.857" cy="76.4545" r="2.04958" fill="rgb(0,0,0)" />
	<circle cx="400" cy="73.48" r="2.04958" fill="rgb(0,0,0)" />
	<circle cx="407.143" cy="76.8109" r="2.04958" fill="rgb(0,0,0)" />
	<circle cx="414.286" cy="77.12" r="2.04958" fill="rgb(0,0,0)" />
	<circle cx="421.429" cy="69.6764" r="2.04958" fill="rgb(0,0,0)" />
	<circle cx="428.571" cy="71.6291" r="2.04958" fill="rgb(0,0,0)" />
	<circle cx="435.714" cy="103.833" r="2.04958" fill="rgb(0,0,0)" />
	<circle cx="442.857" cy="106.273" r="2.04958" fill="rgb(0,0,0)" />
	<circle cx="450" cy="102.644" r="2.04958" fill="rgb(0,0,0)" />
	<circle cx="457.143" cy="94.08" r="2.04958" fill="rgb(0,0,0)" />
	<circle cx="464.286" cy="85.16" r="2.04958" fill="rgb(0,0,0)" />
	<circle cx="471.429" cy="82.3891" r="2.04958" fill="rgb(0,0,0)" />
	<circle cx="478.571" cy="82.3964" r="2.04958" fill="rgb(0,0,0)" />
	<circle cx="485.714" cy="88.9055" r="2.04958" fill="rgb(0,0,0)" />
	<circle cx="492.857" cy="108.382" r="2.04958" fill="rgb(0,0,0)" />
	<circle cx="500" cy="113.313" r="2.04958" fill="rgb(0,0,0)" />
	<circle cx="507.143" cy="107.247" r="2.04958" fill="rgb(0,0,0)" />
	<polyline points="50,114.728 50,250 513.571,250 " fill="transparent" stroke-width="0.5" stroke="rgb(128,0,128)" />
	<text x="106.429" y="265" fill="rgb(255,0,0)" font-size="10" font-family="Verdana" >1930</text>
	<line x1="121.429" y1="250" x2="121.429" y2="50" stroke-width="0.5" stroke="rgb(255,0,0)" />
	<text x="177.857" y="265" fill="rgb(255,0,0)" font-size="10" font-family="Verdana" >1940</text>
	<line x1="192.857" y1="250" x2="192.857" y2="50" stroke-width="0.5" stroke="rgb(255,0,0)" />
	<text x="249.286" y="265" fill="rgb(255,0,0)" font-size="10" font-family="Verdana" >1950</text>
	<line x1="264.286" y1="250" x2="264.286" y2="50" stroke-width="0.5" stroke="rgb(255,0,0)" />
	<text x="320.714" y="265" fill="rgb(255,0,0)" font-size="10" font-family="Verdana" >1960</text>
	<line x1="335.714" y1="250" x2="335.714" y2="50" stroke-width="0.5" stroke="rgb(255,0,0)" />
	<text x="392.143" y="265" fill="rgb(255,0,0)" font-size="10" font-family="Verdana" >1970</text>
	<line x1="407.143" y1="250" x2="407.143" y2="50" stroke-width="0.5" stroke="rgb(255,0,0)" />
	<text x="463.571" y="265" fill="rgb(255,0,0)" font-size="10" font-family="Verdana" >1980</text>
	<line x1="478.571" y1="250" x2="478.571" y2="50" stroke-width="0.5" stroke="rgb(255,0,0)" />
	<text x="10" y="236.818" fill="rgb(128,0,128)" font-size="10" font-family="Verdana" >10000</text>
	<line x1="50" y1="231.818" x2="550" y2="231.818" stroke-width="0.5" stroke="rgb(128,0,128)" />
	<text x="10" y="164.091" fill="rgb(128,0,128)" font-size="10" font-family="Verdana" >30000</text>
	<line x1="50" y1="159.091" x2="550" y2="159.091" stroke-width="0.5" stroke="rgb(128,0,128)" />
	<text x="10" y="91.3636" fill="rgb(128,0,128)" font-size="10" font-family="Verdana" >50000</text>
	<line x1="50" y1="86.3636" x2="550" y2="86.3636" stroke-width="0.5" stroke="rgb(128,0,128)" />
	<text x="50" y="38" fill="rgb(0,0,0)" font-size="25" font-family="Verdana" >Annual Traffic Deaths, USA, 1925-1984</text>
</svg>
